<?xml version="1.0" encoding="utf-8"?>
<!-- Generator: Adobe Illustrator 19.2.1, SVG Export Plug-In . SVG Version: 6.00 Build 0)  -->
<svg version="1.1" id="Capa_1" xmlns="http://www.w3.org/2000/svg" xmlns:xlink="http://www.w3.org/1999/xlink" x="0px" y="0px"
	 viewBox="0 0 250 250" style="enable-background:new 0 0 250 250;" xml:space="preserve">
<style type="text/css">
	.st0{fill:none;}
	.st1{fill:#4BB975;}
	.st2{fill:#DFDFDE;}
	.st3{fill:#FFFFFF;}
	.st4{fill:#FF3F3F;}
	.st5{fill:#FEC00F;}
	.st6{fill:#E2A425;}
	.st7{clip-path:url(#SVGID_2_);}
	.st8{fill:#6A5A64;}
	.st9{fill:#B5B5B6;}
	.st10{fill:#473447;}
	.st11{fill:#66C9DC;}
	.st12{fill:#B1E1EE;}
	.st13{fill:#E8E9E7;}
	.st14{fill:#E9E9EA;}
	.st15{clip-path:url(#SVGID_4_);fill:#E9E9EA;}
	.st16{clip-path:url(#SVGID_4_);fill:#8FD5E3;}
	.st17{fill:#989897;}
	.st18{fill:#B2B2B2;}
	.st19{fill:#332533;}
	.st20{fill:#858687;}
	.st21{fill:#E14A4B;}
	.st22{fill:#C9C9C8;}
	.st23{fill:none;stroke:#B5B5B6;stroke-width:1.038;stroke-miterlimit:10;}
	.st24{fill:#6F676C;}
	.st25{fill:#99999A;}
	.st26{fill:#C5CBCB;}
	.st27{fill:none;stroke:#B5B5B6;stroke-width:1.5243;stroke-linecap:round;stroke-linejoin:round;}
	.st28{fill:none;stroke:#B5B5B6;stroke-width:1.5243;stroke-linecap:round;stroke-linejoin:round;stroke-dasharray:0.1945,3.1113;}
	.st29{fill:none;stroke:#B5B5B6;stroke-width:1.5243;stroke-linecap:round;stroke-linejoin:round;stroke-dasharray:0.1898,3.0375;}
	.st30{fill:none;stroke:#B5B5B6;stroke-width:1.5243;stroke-linecap:round;stroke-linejoin:round;stroke-dasharray:0.1945,3.1112;}
	.st31{fill:none;stroke:#B5B5B6;stroke-width:2.1967;stroke-linecap:round;stroke-linejoin:round;}
	.st32{fill:none;stroke:#B5B5B6;stroke-width:2.1967;stroke-linecap:round;stroke-linejoin:round;stroke-dasharray:0.2802,4.4835;}
	.st33{fill:none;stroke:#B5B5B6;stroke-width:2.1967;stroke-linecap:round;stroke-linejoin:round;stroke-dasharray:0.2736,4.3774;}
	.st34{fill:#EFEFEE;}
</style>
<rect class="st0" width="250" height="250"/>
<g>
	<path class="st4" d="M210,125.7c-0.4,46.9-38.8,84.7-85.7,84.3c-46.9-0.4-84.7-38.8-84.3-85.7c0.4-46.9,38.8-84.7,85.7-84.3
		C172.7,40.4,210.4,78.8,210,125.7"/>
	<path class="st3" d="M163.3,79.6c-14.3,6.2-25.3,19-31.1,24.1c-1.1,1-4.1,3.9-5.2,4.9c-1.1-1-2.2-2-3.3-3
		c-7.4-6.6-32.5-33.7-44.1-24.1c-8,6.5,7.8,22.5,11.6,27.2c4.6,5.6,11.3,12.9,16.4,18.1c-7.5,6.5-17.3,14.5-23.5,22.3
		c-0.2,0.2-0.4,0.5-0.6,0.7c-3.3,4.2-8.9,9.9-7.9,15.5c0.7,4.1,3.2,5.6,6.7,5.6C117.6,149,147.5,117.6,163.3,79.6"/>
	<path class="st2" d="M166.6,147.7c-0.2-0.2-0.4-0.5-0.6-0.7c-6.3-7.7-14.1-13.9-21.6-20.4c5.1-5.2,11.9-10.6,16.4-16.2
		c3.8-4.7,19.6-22.6,11.6-29.1c-2.5-2.1-5.7-2.5-9.2-1.8c-15.8,38.1-45.7,69.4-81.1,91.2c11.1-0.1,31.9-16,36-19.2
		c2.3-1.8,6.4-5.5,8.7-7.4c2.3,1.9,6.4,5.6,8.7,7.4c5.4,4.2,36.2,30.5,38.9,13.6C175.5,159.6,169.9,152,166.6,147.7"/>
</g>
</svg>
