<?xml version="1.0" encoding="utf-8"?>
<!-- Generator: Adobe Illustrator 19.2.1, SVG Export Plug-In . SVG Version: 6.00 Build 0)  -->
<svg version="1.1" id="Capa_1" xmlns="http://www.w3.org/2000/svg" xmlns:xlink="http://www.w3.org/1999/xlink" x="0px" y="0px"
	 viewBox="0 0 250 250" style="enable-background:new 0 0 250 250;" xml:space="preserve">
<style type="text/css">
	.st0{fill:none;}
	.st1{fill:#4BB975;}
	.st2{fill:#DFDFDE;}
	.st3{fill:#FFFFFF;}
	.st4{fill:#FF3F3F;}
	.st5{fill:#FEC00F;}
	.st6{fill:#E2A425;}
	.st7{clip-path:url(#SVGID_2_);}
	.st8{fill:#6A5A64;}
	.st9{fill:#B5B5B6;}
	.st10{fill:#473447;}
	.st11{fill:#66C9DC;}
	.st12{fill:#B1E1EE;}
	.st13{fill:#E8E9E7;}
	.st14{fill:#E9E9EA;}
	.st15{clip-path:url(#SVGID_4_);fill:#E9E9EA;}
	.st16{clip-path:url(#SVGID_4_);fill:#8FD5E3;}
	.st17{fill:#989897;}
	.st18{fill:#B2B2B2;}
	.st19{fill:#332533;}
	.st20{fill:#858687;}
	.st21{fill:#E14A4B;}
	.st22{fill:#C9C9C8;}
	.st23{fill:none;stroke:#B5B5B6;stroke-width:1.038;stroke-miterlimit:10;}
	.st24{fill:#6F676C;}
	.st25{fill:#99999A;}
	.st26{fill:#C5CBCB;}
	.st27{fill:none;stroke:#B5B5B6;stroke-width:1.5243;stroke-linecap:round;stroke-linejoin:round;}
	.st28{fill:none;stroke:#B5B5B6;stroke-width:1.5243;stroke-linecap:round;stroke-linejoin:round;stroke-dasharray:0.1945,3.1113;}
	.st29{fill:none;stroke:#B5B5B6;stroke-width:1.5243;stroke-linecap:round;stroke-linejoin:round;stroke-dasharray:0.1898,3.0375;}
	.st30{fill:none;stroke:#B5B5B6;stroke-width:1.5243;stroke-linecap:round;stroke-linejoin:round;stroke-dasharray:0.1945,3.1112;}
	.st31{fill:none;stroke:#B5B5B6;stroke-width:2.1967;stroke-linecap:round;stroke-linejoin:round;}
	.st32{fill:none;stroke:#B5B5B6;stroke-width:2.1967;stroke-linecap:round;stroke-linejoin:round;stroke-dasharray:0.2802,4.4835;}
	.st33{fill:none;stroke:#B5B5B6;stroke-width:2.1967;stroke-linecap:round;stroke-linejoin:round;stroke-dasharray:0.2736,4.3774;}
	.st34{fill:#EFEFEE;}
</style>
<rect class="st0" width="250" height="250"/>
<g>
	<path class="st1" d="M210,125.7c-0.4,46.9-38.8,84.7-85.7,84.3c-46.9-0.4-84.7-38.8-84.3-85.7c0.4-46.9,38.8-84.7,85.7-84.3
		C172.7,40.4,210.4,78.8,210,125.7"/>
	<path class="st2" d="M186.1,81.2c-2.5-1.9-5.8-1.9-9.8-0.6c-16.5,36.5-44.1,67.9-78.1,89.1c1.2,0.4,2.3,0.6,3.3,0.6
		C123.7,169.4,201.3,92.9,186.1,81.2"/>
	<path class="st3" d="M176.3,80.6c-24.1,8.1-70.8,66.1-74.8,65c-5.3-1.5-24.4-37.7-36.8-27.4c-12.2,10.1,18.4,46.5,33.4,51.4
		C132.2,148.5,159.8,117.2,176.3,80.6"/>
</g>
</svg>
