<?xml version="1.0" encoding="iso-8859-1"?>
<!-- Generator: Adobe Illustrator 19.0.0, SVG Export Plug-In . SVG Version: 6.00 Build 0)  -->
<svg version="1.1" id="Layer_1" xmlns="http://www.w3.org/2000/svg" xmlns:xlink="http://www.w3.org/1999/xlink" x="0px" y="0px"
	 viewBox="0 0 512 512" style="enable-background:new 0 0 512 512;" xml:space="preserve">
<g>
	<path style="fill:#334A8C;" d="M480.652,163.97c-8.656,0-15.673-7.018-15.673-15.673V121.68l-20.249-20.25
		c-6.121-6.121-6.121-16.044,0-22.165c6.12-6.121,16.044-6.121,22.165,0l24.84,24.84c2.939,2.939,4.591,6.926,4.591,11.082v33.109
		C496.326,156.952,489.308,163.97,480.652,163.97z"/>
	<path style="fill:#334A8C;" d="M449.306,381.448h-52.245c-8.656,0-15.673-7.018-15.673-15.673c0-8.656,7.018-15.673,15.673-15.673
		h52.245c8.642,0,15.673-7.031,15.673-15.673V192.792c0-8.656,7.018-15.673,15.673-15.673c8.656,0,15.673,7.018,15.673,15.673
		v141.636C496.326,360.355,475.233,381.448,449.306,381.448z"/>
</g>
<path style="fill:#2C3C7E;" d="M496.326,208.465h-60.168c-8.656,0-15.673-7.018-15.673-15.673v-44.495
	c0-8.656,7.018-15.673,15.673-15.673h60.168V208.465z"/>
<path style="fill:#FF3937;" d="M397.061,460.853H83.591c-8.656,0-15.673-7.018-15.673-15.673V47.02
	C67.918,21.093,89.011,0,114.938,0h250.775c25.927,0,47.02,21.093,47.02,47.02V445.18
	C412.734,453.836,405.717,460.853,397.061,460.853z"/>
<path style="fill:#FF0A0D;" d="M365.714,0H240.326v460.853h156.735c8.656,0,15.673-7.018,15.673-15.673V47.02
	C412.734,21.093,391.641,0,365.714,0z"/>
<path style="fill:#FFDC3E;" d="M344.816,208.356h-208.98c-8.656,0-15.673-7.018-15.673-15.673V67.918
	c0-8.656,7.018-15.673,15.673-15.673h208.98c8.656,0,15.673,7.018,15.673,15.673v124.764
	C360.489,201.338,353.472,208.356,344.816,208.356z"/>
<path style="fill:#FF0A0D;" d="M449.306,512H31.346c-8.656,0-15.673-7.018-15.673-15.673V445.18c0-8.656,7.018-15.673,15.673-15.673
	h417.959c8.656,0,15.673,7.018,15.673,15.673v51.147C464.979,504.982,457.961,512,449.306,512z"/>
<path style="fill:#3A569B;" d="M168.384,271.673h-32.548c-8.656,0-15.673-7.018-15.673-15.673s7.018-15.673,15.673-15.673h32.548
	c8.656,0,15.673,7.018,15.673,15.673S177.041,271.673,168.384,271.673z"/>
<path style="fill:#FFAE23;" d="M344.816,52.245h-104.49v156.111h104.49c8.656,0,15.673-7.018,15.673-15.673V67.918
	C360.489,59.262,353.472,52.245,344.816,52.245z"/>
<path style="fill:#F20013;" d="M449.306,429.506h-208.98V512h208.98c8.656,0,15.673-7.018,15.673-15.673V445.18
	C464.979,436.524,457.961,429.506,449.306,429.506z"/>
<g>
</g>
<g>
</g>
<g>
</g>
<g>
</g>
<g>
</g>
<g>
</g>
<g>
</g>
<g>
</g>
<g>
</g>
<g>
</g>
<g>
</g>
<g>
</g>
<g>
</g>
<g>
</g>
<g>
</g>
</svg>
